<svg width="15" height="13" viewBox="0 0 15 13" fill="none" xmlns="http://www.w3.org/2000/svg">
<path d="M14.0938 6.09375C14.0938 6.65625 13.6562 7.09375 13.125 7.09375H3.53125L6.8125 10.4062C7.21875 10.7812 7.21875 11.4375 6.8125 11.8125C6.625 12 6.375 12.0938 6.125 12.0938C5.84375 12.0938 5.59375 12 5.40625 11.8125L0.40625 6.8125C0 6.4375 0 5.78125 0.40625 5.40625L5.40625 0.40625C5.78125 0 6.4375 0 6.8125 0.40625C7.21875 0.78125 7.21875 1.4375 6.8125 1.8125L3.53125 5.09375H13.125C13.6562 5.09375 14.0938 5.5625 14.0938 6.09375Z" fill="#034833"/>
</svg>
