<svg width="193" height="182" viewBox="0 0 193 182" fill="none" xmlns="http://www.w3.org/2000/svg">
<path d="M95.7372 16.7227L93.2815 8.17359H94.211L96.3339 15.8276H96.1388L98.3191 8.17359H99.2945L101.463 15.8276H101.257L103.391 8.17359H104.321L101.865 16.7227H100.89L98.6978 9.03424H98.9044L96.7126 16.7227H95.7372Z" fill="#034833"/>
<path d="M111.32 18.6565C110.747 18.5592 110.251 18.3355 109.833 17.9852C109.417 17.6274 109.112 17.1878 108.92 16.6663C108.737 16.1386 108.701 15.57 108.813 14.9605C108.923 14.3585 109.157 13.8435 109.516 13.4155C109.874 12.9876 110.308 12.6772 110.818 12.4844C111.336 12.2853 111.89 12.2357 112.478 12.3356C113.066 12.4354 113.566 12.6598 113.976 13.0088C114.394 13.3591 114.692 13.7937 114.869 14.3126C115.054 14.8327 115.09 15.3976 114.978 16.0071C114.865 16.6241 114.625 17.1498 114.258 17.584C113.892 18.0107 113.451 18.3198 112.933 18.5113C112.424 18.7041 111.886 18.7525 111.32 18.6565ZM111.475 17.81C111.883 17.8791 112.267 17.8396 112.629 17.6915C112.998 17.5446 113.309 17.3104 113.562 16.9887C113.823 16.6683 113.993 16.2899 114.073 15.8535C114.153 15.417 114.127 15.0091 113.994 14.6296C113.869 14.2515 113.659 13.9326 113.365 13.6731C113.077 13.4149 112.73 13.2512 112.323 13.1821C111.916 13.113 111.528 13.1518 111.158 13.2987C110.797 13.4468 110.486 13.6773 110.227 13.9902C109.967 14.303 109.798 14.6777 109.718 15.1141C109.638 15.5506 109.663 15.9623 109.795 16.3493C109.926 16.7362 110.135 17.0588 110.422 17.317C110.717 17.5765 111.068 17.7408 111.475 17.81Z" fill="#034833"/>
<path d="M122.152 21.4047L124.327 15.6515L125.139 15.9361L124.782 16.8807L124.727 16.7032C124.967 16.4793 125.254 16.3367 125.588 16.2754C125.929 16.2167 126.298 16.2568 126.695 16.396L127.063 16.525L126.759 17.33L126.25 17.1517C125.831 17.005 125.446 17.0161 125.096 17.1852C124.746 17.3543 124.482 17.6749 124.303 18.1472L122.964 21.6893L122.152 21.4047Z" fill="#034833"/>
<path d="M134.576 26.875L139.044 19.4254L139.796 19.8434L135.328 27.293L134.576 26.875Z" fill="#034833"/>
<path d="M147.05 35.5314C146.604 35.1709 146.293 34.7426 146.116 34.2466C145.945 33.7448 145.914 33.2281 146.022 32.6965C146.142 32.164 146.403 31.6671 146.805 31.2058C147.212 30.7387 147.675 30.4052 148.194 30.2053C148.719 30.0102 149.248 29.9507 149.78 30.0267C150.323 30.1018 150.82 30.322 151.273 30.6873C151.683 31.019 151.974 31.4011 152.145 31.8337C152.315 32.2663 152.364 32.7042 152.293 33.1473L152.027 33.2424L154.598 30.2927L155.268 30.8335L149.56 37.3817L148.89 36.8409L149.795 35.8028L149.819 35.9845C149.361 36.1844 148.885 36.242 148.391 36.1573C147.908 36.0717 147.461 35.8631 147.05 35.5314ZM147.651 34.9115C147.973 35.1711 148.329 35.3263 148.721 35.3773C149.118 35.4332 149.507 35.3885 149.887 35.2434C150.278 35.0974 150.62 34.8571 150.911 34.5226C151.203 34.1882 151.387 33.8258 151.463 33.4355C151.551 33.0443 151.531 32.6651 151.405 32.2979C151.285 31.9355 151.064 31.6245 150.743 31.3649C150.428 31.1101 150.074 30.9573 149.682 30.9063C149.291 30.8553 148.905 30.9023 148.525 31.0474C148.151 31.1973 147.816 31.4424 147.519 31.7826C147.227 32.1171 147.035 32.4775 146.941 32.8639C146.859 33.2494 146.875 33.6209 146.989 33.9785C147.109 34.3409 147.33 34.6519 147.651 34.9115Z" fill="#034833"/>
<path d="M155.152 43.2293L158.549 37.7728L159.19 38.5081L156.15 43.2047L155.924 42.9452L161.189 40.8004L161.754 41.4491L158.646 46.0679L158.419 45.8083L163.76 43.7501L164.393 44.4767L158.221 46.7499L157.655 46.1012L160.705 41.5891L160.863 41.7708L155.718 43.8781L155.152 43.2293Z" fill="#034833"/>
<path d="M163.065 53.9351L168.441 50.9472L168.884 51.6853L163.508 54.6732L163.065 53.9351ZM169.434 50.3953L170.538 49.7821L170.98 50.5202L169.877 51.1334L169.434 50.3953Z" fill="#034833"/>
<path d="M169.387 67.5308C169.184 66.9941 169.132 66.4656 169.229 65.9452C169.334 65.4223 169.567 64.9559 169.927 64.5461C170.297 64.1409 170.771 63.8371 171.348 63.6348C171.933 63.4299 172.499 63.3694 173.046 63.4533C173.595 63.5444 174.08 63.7555 174.499 64.0867C174.929 64.4224 175.246 64.8622 175.452 65.406C175.639 65.8998 175.697 66.3778 175.626 66.8401C175.556 67.3024 175.378 67.709 175.094 68.0598L174.818 68.0107L178.511 66.7168L178.815 67.5219L170.617 70.3941L170.313 69.5891L171.612 69.1338L171.542 69.3043C171.047 69.2507 170.609 69.064 170.226 68.7442C169.854 68.429 169.574 68.0246 169.387 67.5308ZM170.216 67.2892C170.362 67.6756 170.591 67.9885 170.902 68.2279C171.216 68.4745 171.573 68.629 171.972 68.6916C172.382 68.7587 172.796 68.7189 173.215 68.5722C173.634 68.4255 173.974 68.201 174.236 67.8986C174.508 67.6008 174.681 67.2603 174.757 66.8772C174.836 66.5012 174.802 66.12 174.656 65.7335C174.513 65.3543 174.285 65.045 173.974 64.8056C173.663 64.5662 173.307 64.4152 172.907 64.3527C172.51 64.2973 172.099 64.3442 171.673 64.4934C171.254 64.6402 170.908 64.8588 170.633 65.1495C170.369 65.4447 170.196 65.7767 170.114 66.1456C170.036 66.5216 170.07 66.9028 170.216 67.2892Z" fill="#034833"/>
<path d="M172.591 80.1877C172.488 79.6234 172.53 79.0886 172.717 78.5835C172.913 78.0846 173.229 77.6626 173.663 77.3172C174.098 76.9719 174.621 76.7474 175.231 76.6437C175.842 76.54 176.405 76.5764 176.92 76.7529C177.442 76.9281 177.878 77.2109 178.23 77.6012C178.583 77.9991 178.809 78.4727 178.91 79.0221C178.99 79.4585 178.978 79.8601 178.874 80.2269C178.779 80.5999 178.614 80.9305 178.379 81.2187C178.152 81.5056 177.876 81.7424 177.553 81.9293C177.237 82.1148 176.898 82.2383 176.536 82.2997C176.46 82.3125 176.373 82.3235 176.274 82.3326C176.182 82.3404 176.085 82.3452 175.984 82.3468L175.048 77.2335L175.84 77.0991L176.688 81.727L176.274 81.3782C176.701 81.3755 177.062 81.2639 177.356 81.0433C177.658 80.829 177.877 80.5553 178.01 80.2223C178.151 79.888 178.187 79.5327 178.118 79.1565C178.049 78.7802 177.887 78.447 177.632 78.1567C177.378 77.8739 177.057 77.6723 176.669 77.5519C176.289 77.4302 175.861 77.4291 175.386 77.5487C174.896 77.593 174.487 77.7399 174.16 77.9895C173.841 78.2453 173.614 78.5554 173.479 78.9198C173.345 79.2917 173.313 79.6695 173.383 80.0533C173.464 80.4973 173.638 80.8518 173.904 81.117C174.171 81.3821 174.48 81.5819 174.831 81.7163L174.578 82.5039C174.285 82.4296 173.998 82.2882 173.719 82.0795C173.447 81.8696 173.208 81.6037 173.001 81.2819C172.804 80.9663 172.667 80.6016 172.591 80.1877Z" fill="#034833"/>
<path d="M172.693 102.38L180.559 106.88L180.381 107.851L171.39 109.491L171.564 108.543L173.755 108.17L174.444 104.411L172.519 103.328L172.693 102.38ZM175.238 104.848L174.662 107.998L179.816 107.115L179.766 107.386L175.238 104.848Z" fill="#034833"/>
<path d="M167.917 118.697C168.13 118.132 168.452 117.681 168.882 117.346C169.311 117.01 169.799 116.8 170.346 116.716C170.9 116.635 171.466 116.695 172.043 116.897C172.621 117.1 173.091 117.402 173.454 117.805C173.817 118.208 174.047 118.669 174.145 119.19C174.25 119.712 174.195 120.257 173.981 120.822C173.846 121.18 173.654 121.493 173.405 121.763C173.156 122.032 172.874 122.249 172.558 122.414C172.249 122.581 171.927 122.675 171.593 122.696L171.49 121.833C171.854 121.799 172.189 121.669 172.495 121.444C172.801 121.219 173.026 120.917 173.169 120.537C173.313 120.158 173.345 119.78 173.266 119.404C173.192 119.038 173.019 118.706 172.748 118.408C172.481 118.12 172.134 117.902 171.708 117.752C171.289 117.606 170.878 117.559 170.473 117.612C170.074 117.674 169.72 117.821 169.411 118.054C169.1 118.293 168.872 118.602 168.729 118.982C168.586 119.361 168.557 119.728 168.644 120.082C168.728 120.444 168.904 120.757 169.172 121.021L168.495 121.611C168.26 121.39 168.076 121.119 167.944 120.797C167.812 120.476 167.741 120.135 167.73 119.774C167.719 119.414 167.781 119.055 167.917 118.697Z" fill="#034833"/>
<path d="M161.802 130.26C162.113 129.742 162.51 129.355 162.994 129.099C163.478 128.843 163.997 128.72 164.552 128.731C165.114 128.746 165.662 128.902 166.197 129.199C166.732 129.497 167.143 129.874 167.431 130.331C167.718 130.788 167.864 131.281 167.869 131.808C167.88 132.339 167.73 132.864 167.419 133.382C167.223 133.71 166.978 133.985 166.684 134.207C166.391 134.429 166.073 134.593 165.732 134.701C165.398 134.813 165.063 134.85 164.729 134.813L164.779 133.949C165.146 133.977 165.5 133.907 165.841 133.739C166.183 133.57 166.459 133.312 166.667 132.964C166.876 132.616 166.974 132.251 166.963 131.869C166.954 131.497 166.842 131.141 166.626 130.803C166.413 130.474 166.109 130.2 165.715 129.981C165.327 129.766 164.929 129.649 164.52 129.632C164.114 129.625 163.738 129.709 163.392 129.884C163.042 130.066 162.763 130.331 162.555 130.679C162.346 131.026 162.253 131.382 162.277 131.744C162.296 132.114 162.415 132.451 162.633 132.756L161.86 133.219C161.666 132.962 161.533 132.665 161.459 132.327C161.386 131.988 161.375 131.641 161.428 131.286C161.481 130.93 161.606 130.589 161.802 130.26Z" fill="#034833"/>
<path d="M153.846 140.413C154.223 139.981 154.672 139.675 155.192 139.496C155.714 139.328 156.254 139.297 156.81 139.403C157.367 139.509 157.887 139.756 158.369 140.146C158.851 140.535 159.191 140.977 159.389 141.471C159.593 141.97 159.656 142.473 159.579 142.981C159.497 143.494 159.272 143.961 158.905 144.382C158.613 144.716 158.289 144.961 157.932 145.114C157.576 145.279 157.207 145.364 156.826 145.371C156.451 145.382 156.084 145.326 155.724 145.203C155.371 145.085 155.052 144.911 154.766 144.68C154.707 144.632 154.641 144.574 154.568 144.505C154.502 144.442 154.435 144.373 154.368 144.299L157.784 140.381L158.408 140.885L155.317 144.432L155.321 143.904C155.603 144.221 155.927 144.419 156.293 144.498C156.661 144.589 157.019 144.579 157.369 144.468C157.725 144.363 158.029 144.166 158.28 143.877C158.531 143.589 158.688 143.258 158.749 142.885C158.806 142.518 158.754 142.152 158.595 141.788C158.442 141.428 158.163 141.109 157.756 140.831C157.401 140.494 157.017 140.282 156.606 140.196C156.195 140.12 155.802 140.146 155.426 140.275C155.045 140.41 154.727 140.624 154.47 140.918C154.174 141.258 154.008 141.611 153.974 141.976C153.939 142.342 153.984 142.697 154.109 143.043L153.323 143.352C153.189 143.086 153.113 142.784 153.094 142.445C153.081 142.11 153.134 141.765 153.252 141.408C153.371 141.062 153.569 140.73 153.846 140.413Z" fill="#034833"/>
<path d="M144.385 148.962C144.843 148.592 145.343 148.38 145.884 148.326C146.425 148.272 146.942 148.376 147.433 148.637L147.097 149.351C146.714 149.179 146.327 149.108 145.938 149.138C145.542 149.172 145.195 149.31 144.898 149.55C144.612 149.781 144.429 150.042 144.348 150.333C144.272 150.63 144.33 150.888 144.521 151.108C144.662 151.269 144.82 151.357 144.996 151.373C145.176 151.394 145.352 151.38 145.522 151.331C145.692 151.282 145.835 151.23 145.95 151.177L146.804 150.812C147.349 150.577 147.816 150.49 148.204 150.55C148.591 150.611 148.91 150.785 149.162 151.074C149.398 151.345 149.533 151.639 149.566 151.956C149.599 152.273 149.541 152.585 149.393 152.892C149.244 153.199 149.021 153.472 148.724 153.712C148.319 154.039 147.862 154.231 147.354 154.288C146.845 154.355 146.364 154.263 145.91 154.01L146.255 153.289C146.6 153.452 146.949 153.515 147.301 153.476C147.652 153.448 147.964 153.324 148.238 153.103C148.505 152.886 148.662 152.647 148.707 152.384C148.752 152.122 148.687 151.89 148.511 151.688C148.375 151.532 148.225 151.442 148.061 151.417C147.898 151.392 147.742 151.4 147.595 151.44C147.442 151.485 147.313 151.53 147.21 151.574L146.219 151.991C145.737 152.194 145.288 152.267 144.873 152.209C144.451 152.156 144.105 151.974 143.834 151.663C143.612 151.409 143.488 151.121 143.461 150.799C143.428 150.482 143.489 150.162 143.645 149.84C143.805 149.524 144.052 149.231 144.385 148.962Z" fill="#034833"/>
<path d="M133.194 156.082C133.709 155.796 134.237 155.673 134.778 155.713C135.32 155.754 135.809 155.945 136.247 156.288L135.792 156.934C135.445 156.698 135.078 156.562 134.689 156.524C134.294 156.489 133.93 156.565 133.595 156.751C133.274 156.93 133.049 157.155 132.919 157.429C132.793 157.709 132.804 157.974 132.954 158.223C133.064 158.407 133.204 158.521 133.374 158.567C133.548 158.619 133.723 158.636 133.898 158.617C134.074 158.598 134.224 158.571 134.346 158.538L135.249 158.325C135.826 158.188 136.3 158.183 136.67 158.31C137.04 158.436 137.324 158.664 137.52 158.992C137.705 159.3 137.786 159.614 137.764 159.932C137.741 160.251 137.63 160.549 137.43 160.826C137.231 161.103 136.964 161.335 136.63 161.52C136.175 161.773 135.693 161.884 135.184 161.852C134.671 161.83 134.214 161.656 133.813 161.328L134.278 160.676C134.588 160.897 134.92 161.019 135.273 161.041C135.622 161.074 135.951 161.005 136.259 160.834C136.559 160.667 136.755 160.458 136.845 160.207C136.935 159.956 136.911 159.715 136.773 159.486C136.667 159.308 136.536 159.193 136.379 159.14C136.223 159.087 136.068 159.068 135.917 159.083C135.758 159.101 135.624 159.123 135.515 159.148L134.469 159.389C133.959 159.506 133.505 159.5 133.107 159.371C132.703 159.246 132.394 159.007 132.181 158.652C132.008 158.364 131.936 158.058 131.966 157.736C131.989 157.417 132.104 157.112 132.313 156.821C132.526 156.536 132.82 156.29 133.194 156.082Z" fill="#034833"/>
<path d="M109.245 164.204L110.785 172.613L109.88 172.766L108.34 164.357L109.245 164.204Z" fill="#034833"/>
<path d="M98.4816 165.195V171.346H97.621V170.176L97.7587 170.348C97.5904 170.707 97.3418 170.986 97.0128 171.185C96.6762 171.384 96.309 171.484 95.9112 171.484C95.4369 171.484 95.0085 171.35 94.626 171.082C94.2434 170.814 93.9719 170.466 93.8112 170.038L94.0522 170.026C93.8992 170.501 93.6353 170.86 93.2604 171.105C92.8779 171.358 92.4571 171.484 91.9981 171.484C91.585 171.484 91.2063 171.384 90.8621 171.185C90.5102 170.986 90.2309 170.711 90.0244 170.359C89.8102 170.015 89.7031 169.625 89.7031 169.189V165.195H90.5637V168.856C90.5637 169.231 90.6326 169.548 90.7703 169.808C90.9003 170.068 91.0801 170.267 91.3096 170.405C91.5391 170.55 91.803 170.623 92.1014 170.623C92.3921 170.623 92.656 170.55 92.8932 170.405C93.1303 170.267 93.3178 170.065 93.4555 169.797C93.5932 169.537 93.662 169.223 93.662 168.856V165.195H94.5227V168.856C94.5227 169.231 94.5915 169.548 94.7292 169.808C94.8593 170.068 95.0391 170.267 95.2686 170.405C95.4981 170.55 95.762 170.623 96.0604 170.623C96.3587 170.623 96.6265 170.55 96.8636 170.405C97.0931 170.267 97.2767 170.065 97.4144 169.797C97.5521 169.537 97.621 169.223 97.621 168.856V165.195H98.4816Z" fill="#034833"/>
<path d="M84.5806 164.504L83.4723 170.554L82.6238 170.41L82.8347 169.259L82.9395 169.451C82.7088 169.776 82.4133 170.01 82.0532 170.15C81.6855 170.289 81.3055 170.326 80.9133 170.259C80.4457 170.18 80.0474 169.977 79.7186 169.649C79.3897 169.322 79.1847 168.934 79.1035 168.486L79.3431 168.515C79.1068 168.956 78.7818 169.265 78.3681 169.443C77.9455 169.628 77.508 169.681 77.0554 169.604C76.6481 169.535 76.2927 169.374 75.9892 169.121C75.6781 168.866 75.4524 168.549 75.3121 168.168C75.163 167.794 75.1277 167.392 75.2063 166.963L75.9258 163.035L76.7743 163.179L76.1147 166.78C76.0472 167.148 76.0579 167.472 76.1468 167.751C76.2281 168.029 76.3695 168.254 76.571 168.428C76.7711 168.61 77.0182 168.725 77.3123 168.775C77.5989 168.824 77.8722 168.796 78.1322 168.693C78.3909 168.597 78.6122 168.429 78.7962 168.189C78.9788 167.956 79.1032 167.659 79.1694 167.298L79.8289 163.697L80.6774 163.841L80.0179 167.442C79.9503 167.811 79.961 168.135 80.0499 168.414C80.1313 168.691 80.2727 168.917 80.4741 169.091C80.6742 169.272 80.9213 169.388 81.2155 169.438C81.5096 169.488 81.7867 169.461 82.0467 169.358C82.2978 169.261 82.5153 169.092 82.6993 168.852C82.8819 168.619 83.0063 168.322 83.0725 167.961L83.7321 164.36L84.5806 164.504Z" fill="#034833"/>
<path d="M69.6421 160.869L67.4667 166.622L66.6545 166.337L68.8299 160.584L69.6421 160.869ZM67.065 167.685L66.6185 168.865L65.8063 168.581L66.2527 167.4L67.065 167.685Z" fill="#034833"/>
<path d="M56.9388 152.318C57.3066 152.522 57.6142 152.767 57.8616 153.053C58.1023 153.336 58.2773 153.639 58.3866 153.962C58.4932 154.275 58.5299 154.593 58.4968 154.915L57.5863 154.895C57.6289 154.586 57.5681 154.264 57.4041 153.928C57.2402 153.592 56.9442 153.305 56.5162 153.067C56.1886 152.885 55.8503 152.78 55.5014 152.752C55.1524 152.724 54.8216 152.785 54.5088 152.935C54.1961 153.085 53.9334 153.337 53.721 153.691L53.0186 154.862L52.9631 154.687C53.3786 154.411 53.8332 154.27 54.3269 154.264C54.8166 154.265 55.2788 154.387 55.7135 154.628C56.215 154.907 56.5955 155.276 56.8551 155.735C57.1146 156.194 57.2414 156.689 57.2354 157.219C57.2188 157.752 57.063 158.265 56.7679 158.757C56.4688 159.256 56.0856 159.642 55.6182 159.916C55.1441 160.186 54.639 160.329 54.1028 160.346C53.56 160.359 53.0344 160.225 52.5262 159.942C52.0916 159.701 51.7561 159.383 51.5197 158.989C51.2767 158.592 51.1519 158.168 51.1452 157.718L51.3895 157.579L50.6813 158.759L49.929 158.341L52.9687 153.273C53.2402 152.821 53.5925 152.478 54.0257 152.247C54.4561 152.005 54.9262 151.89 55.436 151.902C55.9431 151.904 56.444 152.043 56.9388 152.318ZM55.2307 155.344C54.883 155.151 54.5175 155.061 54.1344 155.076C53.7473 155.097 53.3836 155.205 53.0433 155.401C52.6924 155.6 52.4126 155.873 52.2041 156.221C51.9955 156.568 51.8916 156.935 51.8923 157.32C51.8824 157.708 51.9668 158.066 52.1453 158.392C52.3199 158.725 52.5811 158.989 52.9288 159.182C53.2832 159.379 53.6573 159.469 54.0511 159.451C54.4409 159.441 54.806 159.337 55.1463 159.142C55.4799 158.942 55.753 158.665 55.9654 158.311C56.174 157.963 56.2866 157.597 56.3031 157.213C56.3091 156.831 56.2248 156.474 56.0502 156.141C55.8649 155.81 55.5918 155.545 55.2307 155.344Z" fill="#034833"/>
<path d="M46.5148 148.259L42.4731 152.895L41.8036 152.354L42.4672 151.593L42.4584 151.778C42.1543 151.906 41.8339 151.942 41.4972 151.886C41.1545 151.825 40.8195 151.663 40.4922 151.398L40.1886 151.153L40.7542 150.504L41.1737 150.843C41.5189 151.122 41.8861 151.242 42.2754 151.202C42.6646 151.163 43.0252 150.953 43.3569 150.573L45.8453 147.718L46.5148 148.259Z" fill="#034833"/>
<path d="M36.2513 138.231C36.5076 138.525 36.6798 138.833 36.7678 139.155C36.8499 139.482 36.8475 139.794 36.7608 140.09C36.6741 140.386 36.4998 140.64 36.2379 140.851C35.988 141.053 35.7166 141.184 35.4238 141.243C35.125 141.308 34.8087 141.288 34.4748 141.184C34.141 141.081 33.796 140.883 33.4399 140.591L31.544 139.026L32.151 138.536L33.8844 139.966C34.2355 140.253 34.5567 140.406 34.8481 140.426C35.1345 140.44 35.3877 140.359 35.6079 140.181C35.8222 140.008 35.9333 139.78 35.9413 139.499C35.9443 139.211 35.8327 138.938 35.6065 138.678C35.3301 138.361 35.0203 138.14 34.6773 138.014C34.3284 137.893 33.9771 137.862 33.6234 137.922C33.2698 137.981 32.9471 138.129 32.6555 138.364L31.4415 139.345C31.1558 139.576 31.0117 139.864 31.0091 140.21C31.0065 140.556 31.1459 140.891 31.4274 141.214C31.6738 141.496 31.9643 141.684 32.2991 141.777C32.6279 141.875 32.9536 141.883 33.2762 141.799L33.4586 142.654C33.1809 142.731 32.8783 142.744 32.5508 142.694C32.2183 142.639 31.8988 142.528 31.5925 142.363C31.2802 142.202 31.0109 141.992 30.7847 141.733C30.4881 141.393 30.2952 141.038 30.2058 140.667C30.1115 140.292 30.1235 139.933 30.2418 139.592C30.3491 139.25 30.5605 138.951 30.8759 138.696L34.161 136.043L34.7266 136.692L33.7714 137.463L33.7866 137.289C34.0356 137.225 34.3098 137.22 34.6094 137.273C34.898 137.325 35.1875 137.43 35.4778 137.588C35.7572 137.746 36.015 137.96 36.2513 138.231Z" fill="#034833"/>
<path d="M28.0069 126.725C28.2902 127.197 28.3682 127.64 28.2408 128.051C28.1134 128.463 27.7889 128.814 27.2674 129.104L24.2081 130.804L24.7925 131.779L24.0402 132.197L23.8926 131.951C23.7588 131.728 23.579 131.591 23.3532 131.542C23.1207 131.496 22.8908 131.537 22.6635 131.663L22.2121 131.914L21.7694 131.176L23.0132 130.484L22.3167 129.323L23.069 128.905L23.7655 130.066L26.8247 128.366C27.0052 128.266 27.15 128.15 27.2589 128.02C27.3612 127.893 27.4151 127.745 27.4205 127.576C27.4221 127.4 27.3579 127.204 27.2281 126.987C27.1966 126.935 27.1559 126.874 27.1059 126.806C27.0559 126.737 27.0119 126.679 26.9737 126.63L27.6457 126.257C27.713 126.324 27.7795 126.405 27.8452 126.5C27.9176 126.591 27.9715 126.666 28.0069 126.725Z" fill="#034833"/>
<path d="M23.1641 116.663L17.3594 118.697L17.055 117.892L22.8598 115.858L23.1641 116.663ZM16.2872 119.072L15.0959 119.49L14.7915 118.685L15.9828 118.267L16.2872 119.072Z" fill="#034833"/>
<path d="M19.3955 102.085C19.5002 102.657 19.4596 103.199 19.2735 103.712C19.0799 104.226 18.771 104.662 18.3469 105.021C17.9138 105.374 17.3918 105.602 16.7809 105.706C16.1775 105.808 15.6134 105.764 15.0886 105.574C14.5638 105.384 14.1236 105.082 13.768 104.669C13.4035 104.25 13.1675 103.747 13.0599 103.16C12.9524 102.573 12.9924 102.027 13.1798 101.522C13.3659 101.009 13.6724 100.581 14.0993 100.237C14.5248 99.8856 15.0431 99.6579 15.654 99.5542C16.2725 99.4493 16.8486 99.495 17.3823 99.6915C17.9084 99.8893 18.35 100.198 18.707 100.619C19.0626 101.032 19.2921 101.52 19.3955 102.085ZM18.547 102.229C18.4725 101.822 18.3038 101.475 18.0409 101.186C17.7766 100.889 17.45 100.677 17.0611 100.549C16.6707 100.414 16.2569 100.383 15.8194 100.457C15.382 100.531 15.0077 100.696 14.6966 100.95C14.3841 101.197 14.1563 101.504 14.0134 101.869C13.869 102.228 13.834 102.61 13.9085 103.016C13.9829 103.423 14.1522 103.774 14.4165 104.07C14.6795 104.36 15.0023 104.572 15.3851 104.709C15.7679 104.846 16.178 104.877 16.6154 104.803C17.0529 104.729 17.4309 104.564 17.7496 104.308C18.0682 104.052 18.2998 103.745 18.4441 103.387C18.5871 103.021 18.6214 102.635 18.547 102.229Z" fill="#034833"/>
<path d="M19.4346 91.7609H13.2838V90.9003H14.4773L14.4314 91.0954C14.0336 90.9424 13.7199 90.6937 13.4904 90.3495C13.2609 89.9976 13.1461 89.5921 13.1461 89.1331C13.1461 88.697 13.2456 88.3069 13.4445 87.9626C13.6434 87.6107 13.9188 87.3353 14.2707 87.1364C14.615 86.9299 15.0051 86.8266 15.4412 86.8266H19.4346V87.6872H15.774C15.3991 87.6872 15.0816 87.7561 14.8215 87.8938C14.5614 88.0238 14.3625 88.2113 14.2248 88.4561C14.0795 88.6932 14.0068 88.9686 14.0068 89.2823C14.0068 89.5959 14.0795 89.8752 14.2248 90.12C14.3625 90.3648 14.5652 90.556 14.833 90.6937C15.0931 90.8314 15.4068 90.9003 15.774 90.9003H19.4346V91.7609Z" fill="#034833"/>
<path d="M22.5428 67.3455L15.5784 61.5993L15.9274 60.6762L25.0995 60.5833L24.7586 61.485L22.5279 61.4814L21.1764 65.0557L22.8837 66.4439L22.5428 67.3455ZM20.4697 64.492L21.602 61.4973L16.354 61.4942L16.4514 61.2366L20.4697 64.492Z" fill="#034833"/>
<path d="M32.2276 53.3573C32.0112 53.7182 31.7537 54.0212 31.455 54.2663C31.1604 54.5049 30.8458 54.68 30.5114 54.7916C30.1877 54.9003 29.86 54.9413 29.5284 54.9144L29.5645 54.0292C29.8816 54.0654 30.2144 54.0011 30.5629 53.8361C30.9115 53.6712 31.2117 53.3788 31.4635 52.9589C31.6563 52.6375 31.7699 52.3069 31.8042 51.9673C31.8384 51.6277 31.7811 51.3072 31.632 51.0057C31.483 50.7041 31.2279 50.453 30.8668 50.2524L29.6732 49.589L29.8544 49.5322C30.132 49.9315 30.2696 50.371 30.2672 50.8507C30.2581 51.3268 30.1256 51.778 29.8699 52.2044C29.5747 52.6965 29.1888 53.0724 28.712 53.3323C28.2351 53.5921 27.7239 53.7235 27.1783 53.7264C26.6299 53.7191 26.105 53.5761 25.6035 53.2973C25.0953 53.0149 24.7041 52.6488 24.43 52.199C24.1598 51.7427 24.0204 51.2541 24.0119 50.7333C24.0072 50.2058 24.1545 49.6928 24.4535 49.1942C24.7093 48.7678 25.0417 48.4365 25.4509 48.2002C25.864 47.9574 26.302 47.8291 26.765 47.8153L26.9049 48.0504L25.7012 47.3815L26.1439 46.6434L31.3095 49.5143C31.7709 49.7707 32.1172 50.1075 32.3484 50.5247C32.5903 50.939 32.7008 51.3941 32.6798 51.8898C32.6695 52.3827 32.5188 52.8718 32.2276 53.3573ZM29.1412 51.747C29.3458 51.4058 29.4438 51.0492 29.4352 50.677C29.42 50.3011 29.3144 49.9494 29.1185 49.6219C28.9199 49.2841 28.6434 49.0167 28.289 48.8197C27.9346 48.6228 27.5592 48.5278 27.1626 48.5349C26.7634 48.5316 26.3942 48.6195 26.055 48.7984C25.7092 48.9736 25.434 49.2318 25.2294 49.5729C25.0208 49.9207 24.9222 50.2857 24.9336 50.6682C24.9382 51.0469 25.0385 51.4 25.2343 51.7276C25.4341 52.0486 25.7146 52.3094 26.0757 52.5101C26.4301 52.707 26.8049 52.8104 27.2003 52.8202C27.5929 52.8197 27.9621 52.7318 28.3079 52.5566C28.6509 52.3711 28.9287 52.1013 29.1412 51.747Z" fill="#034833"/>
<path d="M38.1564 41.9422C37.7794 42.3747 37.3304 42.6803 36.8096 42.859C36.2878 43.0272 35.7484 43.0584 35.1916 42.9525C34.6348 42.8467 34.1154 42.5991 33.6333 42.2098C33.1513 41.8204 32.8112 41.3787 32.6131 40.8846C32.4091 40.3856 32.3458 39.8824 32.4231 39.3749C32.5054 38.8616 32.7301 38.3945 33.097 37.9735C33.3886 37.639 33.7129 37.3949 34.0701 37.2412C34.4263 37.0768 34.7949 36.9913 35.176 36.9847C35.5511 36.9732 35.9182 37.029 36.2775 37.1521C36.6307 37.2704 36.9502 37.4449 37.2359 37.6756C37.2954 37.7237 37.3613 37.7818 37.4336 37.8501C37.5 37.9135 37.5669 37.9823 37.6342 38.0563L34.2184 41.9748L33.5935 41.4701L36.6851 37.9235L36.6814 38.4512C36.3993 38.135 36.0751 37.9369 35.7086 37.8571C35.3411 37.7667 34.9825 37.7767 34.6326 37.8872C34.2768 37.9929 33.9733 38.1899 33.7219 38.4782C33.4706 38.7666 33.3142 39.0972 33.2528 39.4702C33.1964 39.8374 33.2477 40.2031 33.4068 40.5675C33.5599 40.927 33.8394 41.2461 34.2455 41.525C34.6012 41.8614 34.9847 42.073 35.3961 42.1595C35.8065 42.2355 36.1996 42.2092 36.5756 42.0804C36.9565 41.9459 37.2752 41.7316 37.5315 41.4375C37.8281 41.0972 37.9936 40.7445 38.0281 40.3792C38.0625 40.0139 38.0176 39.6583 37.8933 39.3122L38.6794 39.0038C38.8132 39.2691 38.8894 39.5714 38.908 39.9107C38.9207 40.2452 38.8679 40.5908 38.7498 40.9474C38.6307 41.2934 38.4329 41.625 38.1564 41.9422Z" fill="#034833"/>
<path d="M45.6942 34.7675L41.6526 30.1311L42.3221 29.5903L43.1063 30.4899L42.9244 30.5779C42.782 30.1818 42.7693 29.7892 42.8863 29.3999C43.0093 29.0057 43.2493 28.6645 43.6063 28.376C43.9456 28.102 44.3144 27.9318 44.7129 27.8655C45.1174 27.7943 45.5126 27.8288 45.8986 27.9691C46.2855 28.0988 46.6222 28.328 46.9087 28.6567L49.5328 31.667L48.8632 32.2078L46.4579 29.4484C46.2116 29.1658 45.9494 28.9698 45.6713 28.8602C45.3993 28.7459 45.1227 28.7137 44.8418 28.7637C44.5618 28.8032 44.2998 28.9214 44.0558 29.1185C43.8118 29.3156 43.6424 29.5459 43.5474 29.8093C43.4475 30.0669 43.4319 30.3399 43.5007 30.6282C43.5645 30.9108 43.7171 31.1905 43.9583 31.4673L46.3637 34.2267L45.6942 34.7675Z" fill="#034833"/>
<path d="M59.3996 25.9407C58.8714 26.2343 58.3338 26.3712 57.787 26.3515C57.2402 26.3317 56.7292 26.1783 56.254 25.8914C55.7748 25.5978 55.3778 25.1887 55.063 24.6638C54.7482 24.1389 54.5805 23.6067 54.56 23.067C54.5394 22.5273 54.659 22.0279 54.9185 21.5688C55.1741 21.103 55.5661 20.7234 56.0943 20.4298C56.4287 20.244 56.7784 20.1284 57.1434 20.0829C57.5085 20.0375 57.8657 20.0533 58.215 20.1303C58.5604 20.2008 58.8686 20.3357 59.1397 20.5349L58.6642 21.2584C58.3613 21.0506 58.0196 20.9344 57.6392 20.9096C57.2588 20.8848 56.8914 20.9709 56.537 21.1679C56.1826 21.3648 55.9148 21.6318 55.7335 21.9687C55.5549 22.2954 55.4745 22.6593 55.4923 23.0606C55.5128 23.4516 55.6392 23.8406 55.8713 24.2277C56.0995 24.6082 56.3864 24.908 56.7318 25.1272C57.08 25.3361 57.4476 25.4511 57.8347 25.4721C58.2285 25.4894 58.6026 25.3996 58.957 25.2027C59.3114 25.0057 59.5692 24.7443 59.7304 24.4185C59.8983 24.089 59.964 23.7376 59.9273 23.3644L60.8278 23.3494C60.8676 23.6685 60.8348 23.9929 60.7294 24.3226C60.624 24.6523 60.4596 24.958 60.2362 25.2396C60.0128 25.5212 59.734 25.7549 59.3996 25.9407Z" fill="#034833"/>
<path d="M69.8355 24.0854C69.72 24.1258 69.5968 24.1569 69.466 24.1784C69.3451 24.2045 69.2187 24.2164 69.087 24.2139L68.8029 23.4626C68.8778 23.4444 68.9721 23.4236 69.0858 23.3999C69.2094 23.3809 69.329 23.3512 69.4445 23.3107C69.7983 23.1868 70.0406 23.0168 70.1715 22.8007C70.3051 22.5918 70.3837 22.2483 70.4073 21.77L70.4508 20.7823L70.697 21.4983L65.9334 16.2629L66.8107 15.9556L70.7284 20.2839L70.501 20.3636L70.6011 14.6276L71.4999 14.3126L71.298 21.7253C71.288 22.0449 71.2401 22.3615 71.1543 22.6752C71.0757 22.9864 70.9313 23.2639 70.7209 23.5077C70.5133 23.7588 70.2182 23.9513 69.8355 24.0854Z" fill="#034833"/>
</svg>
