<svg width="45" height="46" viewBox="0 0 45 46" fill="none" xmlns="http://www.w3.org/2000/svg">
<g clip-path="url(#clip0_3822_330)">
<path d="M22.499 7.82812C19.1204 7.83194 15.8812 9.17575 13.492 11.5648C11.1029 13.9538 9.75888 17.1929 9.75488 20.5716C9.75488 31.7136 21.7396 37.1516 22.2498 37.3763C22.3283 37.411 22.4132 37.429 22.499 37.429C22.5849 37.429 22.6698 37.411 22.7483 37.3763C23.2584 37.1502 35.2432 31.7122 35.2432 20.5716C35.2392 17.1929 33.8952 13.9538 31.506 11.5648C29.1169 9.17575 25.8777 7.83194 22.499 7.82812ZM22.499 36.1345C20.7957 35.2996 10.9854 30.0715 10.9854 20.5716C10.9854 17.5179 12.1984 14.5894 14.3576 12.4302C16.5169 10.2709 19.4454 9.05789 22.499 9.05789C25.5526 9.05789 28.4812 10.2709 30.6404 12.4302C32.7997 14.5894 34.0127 17.5179 34.0127 20.5716C34.0127 30.0585 24.2006 35.2982 22.499 36.1345Z" fill="#034833"/>
<path d="M22.4989 11.1172C20.6288 11.1172 18.8008 11.6717 17.2459 12.7107C15.6911 13.7496 14.4792 15.2263 13.7636 16.954C13.048 18.6817 12.8608 20.5828 13.2257 22.4169C13.5906 24.251 14.4911 25.9357 15.8135 27.258C17.1358 28.5803 18.8206 29.4807 20.6547 29.8454C22.4889 30.2102 24.39 30.0229 26.1176 29.3071C27.8453 28.5914 29.3219 27.3794 30.3607 25.8245C31.3995 24.2695 31.9539 22.4414 31.9538 20.5714C31.9507 18.0648 30.9536 15.6618 29.1811 13.8894C27.4086 12.117 25.0055 11.1201 22.4989 11.1172ZM17.7088 27.2511V26.4966C17.7094 25.6342 18.0521 24.8072 18.6618 24.1973C19.2715 23.5873 20.0984 23.2442 20.9608 23.2433H24.037C24.8991 23.2442 25.7258 23.5871 26.3354 24.1968C26.9451 24.8064 27.288 25.6331 27.2889 26.4952V27.2511C25.8938 28.2557 24.2181 28.7962 22.4989 28.7962C20.7797 28.7962 19.104 28.2557 17.7088 27.2511ZM28.5036 26.1838C28.4239 25.0532 27.9191 23.9948 27.0908 23.2213C26.2625 22.4477 25.172 22.0165 24.0387 22.0142H20.9625C19.8292 22.0165 18.7388 22.4477 17.9104 23.2213C17.0821 23.9948 16.5774 25.0532 16.4977 26.1838C15.402 25.013 14.6724 23.5476 14.3987 21.9676C14.1249 20.3877 14.319 18.7622 14.9571 17.2911C15.5951 15.82 16.6493 14.5675 17.9898 13.6877C19.3304 12.8079 20.8989 12.3392 22.5024 12.3392C24.1059 12.3392 25.6744 12.8079 27.015 13.6877C28.3555 14.5675 29.4097 15.82 30.0477 17.2911C30.6858 18.7622 30.8799 20.3877 30.6061 21.9676C30.3324 23.5476 29.6028 25.013 28.5071 26.1838H28.5036Z" fill="#034833"/>
<path d="M0.378711 11.7145C0.491105 11.7611 0.614803 11.7733 0.734147 11.7496C0.853491 11.7259 0.963114 11.6673 1.04914 11.5812L4.61785 8.01285L9.51547 12.9105C9.63089 13.0259 9.78745 13.0908 9.9507 13.0908C9.97232 13.0909 9.99391 13.0897 10.0154 13.0873C10.1066 13.0778 10.1945 13.0479 10.2726 12.9999C10.3507 12.9519 10.4171 12.887 10.4668 12.8099C11.0828 11.8593 11.8084 10.9844 12.6286 10.2031C12.688 10.1465 12.7355 10.0786 12.7683 10.0033C12.801 9.92808 12.8184 9.84704 12.8194 9.76498C12.8204 9.68291 12.8049 9.60148 12.774 9.52548C12.743 9.44947 12.6972 9.38043 12.6391 9.32242L7.97387 4.65684L11.5422 1.08812C11.628 1.00216 11.6863 0.892738 11.71 0.773655C11.7336 0.654572 11.7214 0.531156 11.675 0.418965C11.6287 0.306774 11.5501 0.210828 11.4492 0.143221C11.3484 0.0756136 11.2298 0.0393715 11.1084 0.0390625L0.614258 0.0390625C0.45127 0.0390623 0.294942 0.103737 0.179594 0.218887C0.0642453 0.334038 -0.000697155 0.490255 -0.000976562 0.653242L-0.000976562 11.1463C-0.000976907 11.268 0.0350972 11.3869 0.102683 11.488C0.170268 11.5891 0.266328 11.6679 0.378711 11.7145ZM1.22949 1.26953H9.62199L6.66887 4.22266C6.61169 4.27976 6.56633 4.34758 6.53538 4.42223C6.50443 4.49688 6.4885 4.5769 6.4885 4.65771C6.4885 4.73853 6.50443 4.81855 6.53538 4.8932C6.56633 4.96785 6.61169 5.03567 6.66887 5.09277L11.3323 9.7559C10.7996 10.3059 10.3079 10.8941 9.86106 11.5158L5.05274 6.70785C4.99563 6.65067 4.92781 6.60531 4.85316 6.57436C4.77851 6.54342 4.69849 6.52749 4.61768 6.52749C4.53686 6.52749 4.45685 6.54342 4.38219 6.57436C4.30754 6.60531 4.23973 6.65067 4.18262 6.70785L1.22949 9.66098V1.26953Z" fill="#034833"/>
<path d="M11.7444 30.9305C11.6916 30.8598 11.6242 30.8014 11.5468 30.759C11.4693 30.7167 11.3837 30.6915 11.2957 30.6852C11.2078 30.6788 11.1194 30.6915 11.0367 30.7223C10.9541 30.7531 10.879 30.8013 10.8166 30.8637L4.61785 37.0628L1.04914 33.4941C0.963101 33.4081 0.853504 33.3496 0.734201 33.3259C0.614897 33.3022 0.491242 33.3143 0.37886 33.3609C0.266479 33.4074 0.170415 33.4862 0.102808 33.5873C0.0352008 33.6885 -0.000914954 33.8074 -0.000975658 33.929V44.4221C-0.00111431 44.503 0.0146969 44.5831 0.0455532 44.6578C0.0764095 44.7326 0.121705 44.8006 0.178849 44.8578C0.235993 44.915 0.303862 44.9605 0.378575 44.9914C0.453287 45.0224 0.533376 45.0384 0.614259 45.0384H11.1084C11.2301 45.0385 11.3491 45.0025 11.4503 44.9349C11.5516 44.8673 11.6305 44.7712 11.677 44.6588C11.7236 44.5463 11.7358 44.4226 11.7119 44.3032C11.6881 44.1838 11.6294 44.0742 11.5433 43.9883L7.97492 40.4195L14.0077 34.386C14.0651 34.3286 14.1105 34.2605 14.1414 34.1854C14.1723 34.1104 14.1881 34.03 14.1878 33.9489C14.1875 33.8678 14.1712 33.7875 14.1397 33.7127C14.1083 33.6379 14.0623 33.5701 14.0046 33.5131C13.1876 32.71 12.4321 31.8467 11.7444 30.9305ZM6.66887 39.9836C6.6117 40.0407 6.56635 40.1085 6.5354 40.1831C6.50446 40.2577 6.48853 40.3377 6.48853 40.4185C6.48853 40.4993 6.50446 40.5793 6.5354 40.6539C6.56635 40.7285 6.6117 40.7963 6.66887 40.8534L9.62199 43.8065H1.22949V35.4147L4.18262 38.3678C4.23972 38.425 4.30754 38.4704 4.38219 38.5013C4.45685 38.5323 4.53686 38.5482 4.61768 38.5482C4.69849 38.5482 4.77851 38.5323 4.85316 38.5013C4.92781 38.4704 4.99563 38.425 5.05273 38.3678L11.1924 32.2281C11.6607 32.8149 12.1666 33.3901 12.7041 33.9473L6.66887 39.9836Z" fill="#034833"/>
<path d="M44.6186 33.3608C44.5063 33.3142 44.3826 33.3019 44.2632 33.3257C44.1439 33.3494 44.0342 33.408 43.9482 33.494L40.3795 37.0627L34.1804 30.8636C34.1178 30.8015 34.0427 30.7534 33.9601 30.7226C33.8775 30.6918 33.7892 30.679 33.7012 30.685C33.6132 30.6914 33.5276 30.7167 33.4502 30.7592C33.3729 30.8016 33.3056 30.8603 33.253 30.9311C32.5652 31.8467 31.8097 32.7094 30.9928 33.512C30.935 33.5689 30.8891 33.6368 30.8577 33.7116C30.8262 33.7863 30.8099 33.8666 30.8096 33.9478C30.8093 34.0289 30.825 34.1093 30.8559 34.1843C30.8868 34.2593 30.9323 34.3275 30.9896 34.3849L37.0235 40.4191L33.4551 43.9871C33.3687 44.073 33.3097 44.1826 33.2856 44.302C33.2616 44.4214 33.2736 44.5453 33.32 44.658C33.3665 44.7706 33.4454 44.8669 33.5467 44.9346C33.648 45.0023 33.7671 45.0384 33.889 45.0383H44.3831C44.5463 45.0383 44.7028 44.9735 44.8181 44.8581C44.9335 44.7427 44.9983 44.5862 44.9983 44.423V33.9289C44.9983 33.8073 44.9622 33.6884 44.8946 33.5873C44.827 33.4862 44.731 33.4073 44.6186 33.3608ZM43.7679 43.8078H35.3754L38.3285 40.8547C38.3857 40.7976 38.431 40.7298 38.462 40.6552C38.4929 40.5806 38.5088 40.5006 38.5088 40.4198C38.5088 40.339 38.4929 40.259 38.462 40.1844C38.431 40.1098 38.3857 40.042 38.3285 39.9849L32.2925 33.9472C32.8308 33.39 33.3367 32.8148 33.8042 32.228L39.9439 38.3674C40.001 38.4246 40.0688 38.4699 40.1435 38.5009C40.2181 38.5318 40.2982 38.5477 40.379 38.5477C40.4598 38.5477 40.5398 38.5318 40.6145 38.5009C40.6891 38.4699 40.7569 38.4246 40.814 38.3674L43.7672 35.4143L43.7679 43.8078Z" fill="#034833"/>
<path d="M44.3839 0.0390627H33.8898C33.7681 0.0389554 33.649 0.074972 33.5478 0.142551C33.4466 0.21013 33.3677 0.30623 33.3211 0.418681C33.2746 0.531132 33.2624 0.654874 33.2862 0.774235C33.31 0.893596 33.3687 1.0032 33.4549 1.08918L37.0232 4.65789L32.3591 9.32242C32.301 9.38043 32.2551 9.44947 32.2242 9.52548C32.1932 9.60148 32.1778 9.68291 32.1788 9.76498C32.1797 9.84704 32.1971 9.92808 32.2299 10.0033C32.2627 10.0786 32.3102 10.1465 32.3696 10.2031C33.1897 10.9845 33.9153 11.8594 34.5314 12.8099C34.5811 12.887 34.6474 12.9519 34.7256 12.9999C34.8037 13.0479 34.8916 13.0778 34.9828 13.0873C35.0043 13.0897 35.0258 13.0909 35.0475 13.0908C35.2107 13.0908 35.3673 13.0259 35.4827 12.9105L40.3803 8.01285L43.949 11.5812C44.0351 11.6672 44.1447 11.7257 44.264 11.7494C44.3833 11.7732 44.5069 11.761 44.6193 11.7144C44.7317 11.6679 44.8278 11.5891 44.8954 11.488C44.963 11.3869 44.9991 11.268 44.9991 11.1463V0.653242C44.9989 0.490255 44.9339 0.334038 44.8186 0.218888C44.7032 0.103737 44.5469 0.0390625 44.3839 0.0390627ZM43.7687 9.66098L40.8155 6.70785C40.7584 6.65067 40.6906 6.60531 40.616 6.57436C40.5413 6.54341 40.4613 6.52749 40.3805 6.52749C40.2997 6.52749 40.2197 6.54341 40.145 6.57436C40.0704 6.60531 40.0025 6.65067 39.9454 6.70785L35.1371 11.5158C34.6903 10.8941 34.1985 10.3059 33.6658 9.7559L38.3293 5.09207C38.3865 5.03496 38.4318 4.96714 38.4628 4.89249C38.4937 4.81784 38.5097 4.73782 38.5097 4.65701C38.5097 4.5762 38.4937 4.49618 38.4628 4.42153C38.4318 4.34688 38.3865 4.27906 38.3293 4.22195L35.3762 1.26883H43.7687V9.66098Z" fill="#034833"/>
<path d="M22.499 14.103C21.8085 14.0645 21.1224 14.2341 20.5294 14.5899C19.9363 14.9456 19.4637 15.4711 19.1726 16.0984C18.8815 16.7257 18.7853 17.426 18.8965 18.1085C19.0078 18.7911 19.3213 19.4246 19.7965 19.927C20.2717 20.4294 20.8867 20.7777 21.562 20.9268C22.2373 21.0758 22.9418 21.0188 23.5843 20.7631C24.2269 20.5074 24.7779 20.0647 25.1661 19.4924C25.5543 18.9201 25.7619 18.2445 25.7619 17.5529C25.785 16.6632 25.4546 15.8006 24.843 15.154C24.2315 14.5074 23.3886 14.1295 22.499 14.103ZM22.499 19.772C22.0518 19.8114 21.6031 19.7147 21.2117 19.4947C20.8204 19.2746 20.5046 18.9415 20.3059 18.5389C20.1071 18.1363 20.0347 17.6831 20.098 17.2386C20.1613 16.7941 20.3574 16.3791 20.6606 16.048C20.9639 15.7169 21.3601 15.4852 21.7973 15.3831C22.2345 15.2811 22.6924 15.3136 23.1108 15.4763C23.5293 15.639 23.8889 15.9243 24.1423 16.2948C24.3958 16.6654 24.5314 17.1039 24.5314 17.5529C24.5543 18.1161 24.3534 18.6655 23.9727 19.0812C23.5919 19.4968 23.0621 19.7449 22.499 19.7713V19.772Z" fill="#034833"/>
</g>
<defs>
<clipPath id="clip0_3822_330">
<rect width="45" height="45" fill="white" transform="translate(-0.000976562 0.0390625)"/>
</clipPath>
</defs>
</svg>
