<svg width="14" height="15" viewBox="0 0 14 15" fill="none" xmlns="http://www.w3.org/2000/svg">
<path d="M3.125 14.4062H0.21875V5.0625H3.125V14.4062ZM1.65625 3.8125C0.75 3.8125 0 3.03125 0 2.09375C0 0.8125 1.375 0 2.5 0.65625C3.03125 0.9375 3.34375 1.5 3.34375 2.09375C3.34375 3.03125 2.59375 3.8125 1.65625 3.8125ZM13.9688 14.4062H11.0938V9.875C11.0938 8.78125 11.0625 7.40625 9.5625 7.40625C8.0625 7.40625 7.84375 8.5625 7.84375 9.78125V14.4062H4.9375V5.0625H7.71875V6.34375H7.75C8.15625 5.625 9.09375 4.84375 10.5 4.84375C13.4375 4.84375 14 6.78125 14 9.28125V14.4062H13.9688Z" fill="#034833"/>
</svg>
