<svg width="54" height="31" viewBox="0 0 54 31" fill="none" xmlns="http://www.w3.org/2000/svg">
<path d="M6.93359 29.8644C6.68726 30.2339 6.16111 30.3582 5.75781 30.0793L5.74902 30.0734L5.73926 30.0685L0.484375 27.2326C0.330393 27.1064 0.24674 26.9738 0.210938 26.8127C0.173053 26.6417 0.184774 26.421 0.255859 26.1154L7.53906 0.88983L7.54199 0.877134C7.63459 0.445018 8.03729 0.160162 8.48047 0.191587V0.192564H25.5645C25.8822 0.192625 26.0579 0.263911 26.1582 0.367369C26.2597 0.472081 26.3223 0.64945 26.3223 0.951353V3.52557C26.2854 3.98528 26.1444 4.40433 25.9023 4.75018L6.94043 29.8556L6.93945 29.8547L6.93359 29.8644ZM33.5615 29.8644C33.3148 30.2342 32.7842 30.3613 32.3779 30.1115L32.3701 30.1076L27.1914 27.2346C27.0358 27.1077 26.952 26.9747 26.916 26.8127C26.8777 26.6399 26.8898 26.4163 26.9629 26.1056L34.2432 0.88983L34.2461 0.880064C34.34 0.47315 34.6802 0.192564 35.123 0.192564H52.2686C52.5865 0.192574 52.7619 0.263897 52.8623 0.367369C52.9638 0.472065 53.0273 0.649327 53.0273 0.951353V3.51581C52.9919 3.97659 52.8515 4.39627 52.6104 4.74335L33.5684 29.8547L33.5615 29.8644Z" stroke="#83CD20" stroke-width="0.379325"/>
</svg>
