<svg width="60" height="60" viewBox="0 0 60 60" fill="none" xmlns="http://www.w3.org/2000/svg">
<rect width="60" height="60" rx="30" fill="#83CD20"/>
<path d="M37.625 35.875C38.0938 36.375 38.0938 37.1562 37.625 37.6562C37.125 38.125 36.3438 38.125 35.8438 37.6562L32.125 33.9062C30.8438 34.75 29.2812 35.1875 27.5938 34.9688C24.7188 34.5625 22.4062 32.2188 22.0312 29.375C21.5 25.125 25.0938 21.5312 29.3438 22.0625C32.1875 22.4375 34.5312 24.75 34.9375 27.625C35.1562 29.3125 34.7188 30.875 33.875 32.125L37.625 35.875ZM24.4688 28.5C24.4688 30.7188 26.25 32.5 28.4688 32.5C30.6562 32.5 32.4688 30.7188 32.4688 28.5C32.4688 26.3125 30.6562 24.5 28.4688 24.5C26.25 24.5 24.4688 26.3125 24.4688 28.5Z" fill="white"/>
</svg>
