<svg width="15" height="15" viewBox="0 0 15 15" fill="none" xmlns="http://www.w3.org/2000/svg">
<path d="M14 1.03906L12.25 12.3867C12.2227 12.6602 12.0586 12.9062 11.8125 13.043C11.6758 13.0977 11.5391 13.1523 11.375 13.1523C11.2656 13.1523 11.1562 13.125 11.0469 13.0703L7.71094 11.6758L6.31641 13.7539C6.20703 13.9453 6.01562 14.0273 5.82422 14.0273C5.52344 14.0273 5.27734 13.7812 5.27734 13.4805V10.8555C5.27734 10.6367 5.33203 10.4453 5.44141 10.3086L11.4023 2.65234L3.36328 9.89844L0.546875 8.72266C0.246094 8.58594 0.0273438 8.3125 0.0273438 7.95703C0 7.57422 0.164062 7.30078 0.464844 7.13672L12.7148 0.164062C12.9883 0 13.3711 0 13.6445 0.191406C13.918 0.382812 14.0547 0.710938 14 1.03906Z" fill="#034833"/>
</svg>
